# xmcd
#
# Track frame offsets:
#	150
#	12986
#	26038
#	37137
#	52884
#	65781
#	78814
#	89948
#	101093
#	111253
#	121512
#	134680
#	155338
#	167561
#	179289
#	191169
#	201646
#	214033
#
# Disc length: 2984 seconds
#
# Revision: 0
# Processed by: cddbd v1.5.2PL0 Copyright (c) Steve Scherf et al.
# Submitted via: EZCDAudioConverter 2.1.7.1
#
DISCID=080ba612
DTITLE=V/A - New Orleans Funk V4
DYEAR=1900
DGENRE=
TTITLE0=Eldridge Holmes - Pop, Popcorn Children
TTITLE1=Gus 'The Groove' Lewis - Let The Groove Move You
TTITLE2=Dave Bartholomew - The Monkey
TTITLE3=Chocolate Milk - Action Speaks Louder Than Words
TTITLE4=James K-Nine - Live It Up
TTITLE5=Lou Johnson - Frisco Here I Come
TTITLE6=Norma Jean - No Competition
TTITLE7=James Waynes - Junco Partner (Worthless Man)
TTITLE8=David Robinson - I'm A Carpenter (Part 1)
TTITLE9=The Barons Ltd. - Making It Better
TTITLE10=Johnny  Adams - You Make A New Man Out Of Me
TTITLE11=Clifton Chenier and His Red Hot Louisiana Band - Party Down
TTITLE12=Eddie Bo - Can You Handle It
TTITLE13=Bob French's Storyville Jazz Band - Y'er Comes The Funky Man
TTITLE14=Joe Haywood - Play Me A Cornbread Song
TTITLE15=Betty Harris - I'm Gonna Git Ya
TTITLE16=Chuck Colbert and Viewpoint - Stay
TTITLE17=Zilla Mayes - All I Want Is You
EXTD=
EXTT0=
EXTT1=
EXTT2=
EXTT3=
EXTT4=
EXTT5=
EXTT6=
EXTT7=
EXTT8=
EXTT9=
EXTT10=
EXTT11=
EXTT12=
EXTT13=
EXTT14=
EXTT15=
EXTT16=
EXTT17=
PLAYORDER=
